<?xml version="1.0" standalone="no"?>
<!DOCTYPE svg PUBLIC "-//W3C//DTD SVG 20010904//EN"
 "http://www.w3.org/TR/2001/REC-SVG-20010904/DTD/svg10.dtd">
<svg version="1.0" xmlns="http://www.w3.org/2000/svg"
 width="512.000000pt" height="512.000000pt" viewBox="0 0 512.000000 512.000000"
 preserveAspectRatio="xMidYMid meet">
<metadata>
Created by potrace 1.11, written by Peter Selinger 2001-2013
</metadata>
<g transform="translate(0.000000,512.000000) scale(0.100000,-0.100000)"
fill="#000000" stroke="none">
<path d="M2275 3011 c-6 -5 -73 -11 -150 -14 -127 -4 -201 -15 -262 -38 -13
-5 -33 -32 -49 -64 -17 -34 -33 -54 -42 -53 -9 2 -25 -16 -39 -42 -24 -44 -24
-50 -20 -215 3 -160 5 -173 30 -220 15 -27 27 -54 27 -60 0 -20 71 -86 137
-128 45 -29 94 -49 146 -62 71 -17 88 -17 205 -6 70 7 154 22 187 32 33 10 69
19 79 19 46 0 85 23 92 54 3 17 12 40 19 51 7 11 16 36 20 55 4 19 14 44 21
55 8 11 14 30 14 43 0 13 9 37 20 52 32 45 50 108 50 175 0 58 -3 67 -40 116
-22 30 -40 60 -40 68 0 8 -35 49 -79 92 -75 73 -81 77 -143 88 -78 13 -170 14
-183 2z m183 -45 c10 -9 30 -16 45 -16 26 0 54 -23 84 -67 9 -13 21 -23 28
-23 7 0 24 -25 39 -55 14 -30 30 -55 36 -55 5 0 10 -6 10 -14 0 -7 7 -19 15
-26 32 -26 14 -154 -31 -219 -13 -20 -24 -48 -24 -63 0 -15 -4 -30 -10 -33 -5
-3 -14 -25 -21 -48 -16 -63 -56 -144 -75 -151 -8 -3 -25 -6 -37 -6 -12 0 -49
-9 -82 -19 -33 -10 -115 -24 -182 -31 -111 -12 -128 -11 -195 6 -117 29 -246
121 -269 192 -7 20 -20 53 -30 72 -16 29 -19 58 -19 182 0 145 10 206 31 193
13 -9 32 16 65 83 15 30 36 57 48 61 62 24 135 35 264 39 87 2 142 8 142 14 0
18 147 4 168 -16z"/>
<path d="M2074 2676 c-7 -19 13 -56 30 -56 9 0 14 12 14 35 0 28 -4 35 -19 35
-11 0 -22 -6 -25 -14z"/>
<path d="M2340 2655 c-17 -20 -4 -35 31 -35 32 0 34 3 19 31 -13 23 -33 25
-50 4z"/>
<path d="M1976 2503 c-3 -3 -6 -23 -6 -43 0 -77 71 -104 272 -105 136 0 138 0
164 27 18 17 25 32 20 44 -6 15 -10 14 -37 -12 -28 -27 -35 -29 -135 -32 -81
-3 -118 0 -162 13 -80 25 -92 35 -92 72 0 31 -11 49 -24 36z"/>
</g>
</svg>
